# xmcd
#
# Track frame offsets: 
#        150
#        11569
#        32890
#        49622
#        63872
#        95238
#        110159
#        125194
#        146864
#        167867
#        184293
#
# Disc length: 2656 seconds
#
# Revision: 0
# Processed by: cddbd v1.5.2PL0 Copyright (c) Steve Scherf et al.
# Submitted via: ExactAudioCopy v1.0b1
#
DISCID=a90a5e0b
DTITLE=Lorenzo Thompson, J.L. Pardo, Quique Gomez and Big Yuyu - Do the 
DTITLE=Siesta
DYEAR=2011
DGENRE=Blues
TTITLE0=I Want To Be Loved
TTITLE1=Do the Do
TTITLE2=Big Boss Man
TTITLE3=Killing Floor
TTITLE4=Stormy Monday Blues
TTITLE5=Evil
TTITLE6=Come On In My Kitchen
TTITLE7=Caress Me Baby
TTITLE8=Phone Booth
TTITLE9=Walkin Thru the Park
TTITLE10=Blow Wind Blow
EXTD=
EXTT0=
EXTT1=
EXTT2=
EXTT3=
EXTT4=
EXTT5=
EXTT6=
EXTT7=
EXTT8=
EXTT9=
EXTT10=
PLAYORDER=
